<svg width="116" height="26" viewBox="0 0 116 26" fill="none" xmlns="http://www.w3.org/2000/svg">
<path d="M10.7094 7.36949C11.3785 3.62204 9.46328 0.840454 6.20528 0.840454H0.278809V20.5467H7.81947C11.9836 20.5467 15.3601 17.1536 15.3601 12.9656C15.3601 10.3925 13.289 8.42631 10.7094 7.36949ZM7.81947 18.2418H2.57298V3.14694H6.20528C7.79295 3.14694 9.14669 4.1771 9.63952 5.60709V5.60866C9.76741 5.98184 9.83759 6.38167 9.83759 6.79875C9.83759 7.22524 9.76429 7.63448 9.63016 8.01393C11.6327 8.75872 13.066 10.6983 13.066 12.9672C13.066 15.8757 10.7125 18.2418 7.81947 18.2418Z" fill="#5D30DD"/>
<path d="M7.05588 9.97972C6.92176 10.0064 6.78451 10.0283 6.64883 10.0409C6.09829 10.0957 5.55243 10.0299 5.0362 9.86212C4.1831 10.6069 3.70898 12.1451 3.70898 13.2301C4.98474 13.5092 6.48975 12.9024 7.60954 12.0463C8.72933 11.1918 9.244 9.81508 9.32042 8.50426C9.32042 8.50426 9.3173 8.50426 9.31574 8.50426C8.73245 9.33842 8.05402 9.77588 7.05588 9.97972Z" fill="#35D8D0"/>
<path d="M6.65843 9.26507C7.64409 9.13963 8.47068 8.58143 8.97755 7.80529C8.29445 7.1828 7.35557 6.84882 6.3699 6.97426C5.38423 7.0997 4.55765 7.6579 4.05078 8.43404C4.73388 9.05653 5.67276 9.39051 6.65843 9.26507Z" fill="#35D8D0"/>
<path d="M24.0131 7.15271C22.048 7.15271 20.426 7.82537 19.1955 9.15187C18.0367 10.4235 17.4487 12.0589 17.4487 14.0142C17.4487 15.9537 18.0632 17.5891 19.275 18.878C20.5227 20.2029 22.1603 20.874 24.1425 20.874C25.7021 20.874 26.9982 20.4977 27.9947 19.7529C28.9866 19.0113 29.7228 18.025 30.1782 16.8255L30.239 16.6672H27.8684L27.8357 16.7299C27.098 18.1442 25.8643 18.8623 24.169 18.8623C22.9229 18.8623 21.8827 18.4688 21.0779 17.6926C20.3168 16.9604 19.8536 16.0259 19.6992 14.9142H30.5774V14.0142C30.5774 12.0589 29.9895 10.4235 28.8307 9.15187C27.5986 7.8238 25.9782 7.15271 24.0131 7.15271ZM24.0131 9.16285C25.1734 9.16285 26.1606 9.53132 26.9498 10.2557C27.6594 10.9205 28.1117 11.7923 28.2957 12.8507H19.7304C19.9145 11.7939 20.3667 10.9205 21.0764 10.2573C21.864 9.53132 22.8527 9.16285 24.0131 9.16285Z" fill="#5D30DD"/>
<path d="M37.9758 7.58077C36.778 8.1374 35.9265 8.96842 35.4368 10.0535V7.36125H33.2549V20.6639H35.4368V14.7966C35.4368 13.3321 35.8485 12.0542 36.6595 11.0005C37.5157 9.90293 38.6402 9.3463 40.0002 9.3463H40.3511V7.15271H40.1047C39.2765 7.15271 38.5607 7.29696 37.9758 7.58077Z" fill="#5D30DD"/>
<path d="M47.4665 7.58077C46.2687 8.1374 45.4172 8.96842 44.9275 10.0535V7.36125H42.7456V20.6639H44.9275V14.7966C44.9275 13.3321 45.3392 12.0542 46.1502 11.0005C47.0064 9.90293 48.1309 9.3463 49.4909 9.3463H49.8402V7.15271H49.5938C48.7672 7.15271 48.0498 7.29696 47.4665 7.58077Z" fill="#5D30DD"/>
<path d="M57.109 17.8782L53.001 7.36182H50.5898L55.9408 20.3634L53.5219 25.8404H55.8847L63.678 7.36182H61.2918L57.109 17.8782Z" fill="#5D30DD"/>
<path d="M73.6342 13.6833C72.9886 13.4121 72.2758 13.1988 71.5179 13.0499C70.7724 12.904 70.0721 12.7425 69.4327 12.5685C68.8042 12.3976 68.277 12.1781 67.8653 11.9162C67.4723 11.6669 67.282 11.3094 67.282 10.8249C67.282 9.63795 68.2256 9.05936 70.1688 9.05936C72.1199 9.05936 73.1492 9.69283 73.3161 10.9974L73.3286 11.0993H75.537L75.5214 10.9692C75.3981 9.88098 74.9381 8.99351 74.1552 8.33026C73.2178 7.54941 71.9249 7.15271 70.3107 7.15271C68.6108 7.15271 67.307 7.49139 66.432 8.15621C65.5477 8.83044 65.0986 9.78847 65.0986 11.0068C65.0986 11.8362 65.3232 12.4964 65.7676 12.9699C66.2012 13.4324 66.7533 13.8025 67.4068 14.069C68.0525 14.3325 68.7636 14.541 69.5216 14.69C70.2733 14.8389 70.9751 15.0035 71.6052 15.1839C72.2322 15.3626 72.7578 15.5947 73.171 15.8738C73.5656 16.1403 73.7575 16.5151 73.7575 17.0184C73.7575 17.7742 73.3738 18.2947 72.5846 18.6083C72.2306 18.7432 71.8625 18.8388 71.4929 18.889C71.1202 18.9407 70.71 18.9658 70.2733 18.9658C69.8444 18.9658 69.4046 18.8968 68.9711 18.7635C67.7764 18.3574 67.1385 17.5954 67.0216 16.432L67.0106 16.3269H64.7539L64.7601 16.4508C64.8303 17.7161 65.3528 18.7557 66.3088 19.5381C67.3475 20.424 68.7636 20.8725 70.5182 20.8725C72.1635 20.8725 73.4892 20.5259 74.4577 19.8439C75.4403 19.154 75.9378 18.1411 75.9378 16.8349C75.9378 15.9898 75.7132 15.314 75.2703 14.8217C74.8414 14.3419 74.2893 13.9593 73.6342 13.6833Z" fill="#5D30DD"/>
<path d="M88.8662 9.23653C87.8025 7.85201 86.3209 7.15112 84.4587 7.15112C82.4749 7.15112 80.8623 7.82378 79.6661 9.15029C78.5073 10.4564 77.9209 12.0918 77.9209 14.011C77.9209 15.9318 78.5073 17.5672 79.6661 18.8733C80.8623 20.1998 82.4313 20.8724 84.3277 20.8724C86.285 20.8724 87.8103 20.181 88.8646 18.8153V20.6639H91.0465V7.36123H88.8646V9.23653H88.8662ZM84.5882 18.8623C83.2423 18.8623 82.1334 18.3825 81.2959 17.4386C80.5036 16.5417 80.1028 15.3892 80.1028 14.0141C80.1028 12.639 80.5036 11.4866 81.2959 10.5897C82.1349 9.6442 83.2423 9.1644 84.5882 9.1644C85.9497 9.1644 87.0383 9.64263 87.8275 10.5866C88.5854 11.485 88.9707 12.6375 88.9707 14.0126C88.9707 15.3893 88.587 16.5417 87.8275 17.4402C87.0383 18.3841 85.9497 18.8623 84.5882 18.8623Z" fill="#5D30DD"/>
<path d="M96.9135 3.02324C96.0401 3.75705 95.5972 4.86874 95.5972 6.32696V7.36025H93.3623V9.32022H95.5972V20.6629H97.7791V9.32022H100.795V7.36025H97.7791V6.48532C97.7791 5.61823 97.9974 4.98321 98.4294 4.59905C98.8646 4.21176 99.5336 4.0142 100.418 4.0142H100.795V1.92566H100.522C98.9956 1.92566 97.7806 2.29413 96.9135 3.02324Z" fill="#5D30DD"/>
<path d="M115.277 14.0126C115.277 12.0573 114.689 10.4219 113.53 9.15031C112.3 7.82537 110.679 7.15271 108.714 7.15271C106.749 7.15271 105.129 7.82537 103.897 9.15187C102.738 10.4235 102.15 12.0589 102.15 14.0142C102.15 15.9537 102.764 17.5891 103.976 18.878C105.224 20.2029 106.861 20.874 108.844 20.874C110.403 20.874 111.699 20.4977 112.696 19.7529C113.688 19.0113 114.424 18.025 114.879 16.8255L114.94 16.6672H112.57L112.537 16.7299C111.799 18.1442 110.566 18.8623 108.87 18.8623C107.624 18.8623 106.584 18.4688 105.779 17.6926C105.018 16.9588 104.555 16.0243 104.4 14.9142H115.279V14.0126H115.277ZM108.713 9.16285C109.873 9.16285 110.86 9.53132 111.649 10.2557C112.359 10.9205 112.811 11.7923 112.995 12.8507H104.43C104.614 11.7923 105.066 10.9205 105.776 10.2573C106.565 9.53132 107.552 9.16285 108.713 9.16285Z" fill="#5D30DD"/>
</svg>
